<?xml version="1.0" encoding="utf-8"?>
<svg xmlns="http://www.w3.org/2000/svg" style="margin: auto; display: block; shape-rendering: auto;" width="290" height="250" preserveAspectRatio="xMidYMid">
<style type="text/css">
  text {
    text-anchor: middle; font-size: 114px; opacity: 0;
  }
</style>
<g transform="translate(145,125)">
  <g transform="translate(0,0)"><g class="path" style="transform-origin: -40.41px -7.2769px; transform: rotate(0deg); animation: 1.49254s linear -0.492537s infinite normal forwards running spin-74fa41b4-28d9-4b6b-bc1b-aae913bf003f;"><path d="M61.01-5.12L61.01-5.12L61.01-5.12Q61.01-0.45 62.34 0.22L62.34 0.22L62.34 0.22Q63.12 0.56 64.46 0.56L64.46 0.56L64.46-20.48L61.79-20.48L61.79-20.48Q56.11-2.12 39.08-2.00L39.08-2.00L39.08-2.00Q24.60-2.00 19.37-16.59L19.37-16.59L19.37-16.59Q16.81-23.71 16.81-33.40L16.81-33.40L16.81-33.40Q16.81-54.22 28.28-61.68L28.28-61.68L28.28-61.68Q33.29-64.79 39.41-64.79L39.41-64.79L39.41-64.79Q53.33-64.79 59.56-51.66L59.56-51.66L59.56-51.66Q60.67-49.32 61.45-46.87L61.45-46.87L64.13-46.87L63.79-67.35L63.79-67.35Q61.34-67.35 60.79-65.79L60.79-65.79L60.79-65.79Q60.45-64.46 60.45-61.45L60.45-61.45L60.45-61.45Q57.22-64.68 49.43-66.69L49.43-66.69L49.43-66.69Q44.31-67.91 38.96-67.91L38.96-67.91L38.96-67.91Q21.38-67.91 12.02-54.88L12.02-54.88L12.02-54.88Q5.57-45.64 5.57-33.62L5.57-33.62L5.57-33.62Q5.57-19.04 14.58-9.13L14.58-9.13L14.58-9.13Q24.16 1.11 39.52 1.11L39.52 1.11L39.52 1.11Q50.77 1.00 61.01-5.12" fill="#d69293" stroke="none" stroke-width="none" transform="translate(-75.42501831054688,26.12309814453125)" style="fill: rgb(214, 146, 147);"></path></g><g class="path" style="transform-origin: 39.19px -6.9969px; transform: rotate(0deg); animation: 1.49254s linear 0s infinite normal forwards running spin-74fa41b4-28d9-4b6b-bc1b-aae913bf003f;"><path d="M156.42-63.90L156.42-66.80L138.60-66.80L114.56-12.36L88.73-66.80L72.81-66.80L72.81-63.90L81.71-63.90L81.71-2.89L72.81-2.89L72.81 0L95.07 0L95.07 0Q95.07-2.45 93.29-2.78L93.29-2.78L93.29-2.78Q92.74-2.89 92.18-2.89L92.18-2.89L86.17-2.89L86.17-50.77L110.55 0.56L112.89 0.56L138.60-56.78L138.60-2.89L129.70-2.89L129.70 0L156.42 0L156.42 0Q156.42-2.45 154.63-2.78L154.63-2.78L154.63-2.78Q154.08-2.89 153.52-2.89L153.52-2.89L147.51-2.89L147.51-63.90L156.42-63.90" fill="#d69293" stroke="none" stroke-width="none" transform="translate(-75.42501831054688,26.12309814453125)" style="fill: rgb(214, 146, 147);"></path></g></g>
</g>
<style id="spin-74fa41b4-28d9-4b6b-bc1b-aae913bf003f" data-anikit="">@keyframes spin-74fa41b4-28d9-4b6b-bc1b-aae913bf003f
{
  0% {
    animation-timing-function: cubic-bezier(0.5856,0.0703,0.4143,0.9297);
    transform: rotate(0deg);
  }
  100% {
    transform: rotate(360deg);
  }
}</style><style id="spin-74fa41b4-28d9-4b6b-bc1b-aae913bf003f" data-anikit="">@keyframes spin-74fa41b4-28d9-4b6b-bc1b-aae913bf003f
{
  0% {
    animation-timing-function: cubic-bezier(0.5856,0.0703,0.4143,0.9297);
    transform: rotate(0deg);
  }
  100% {
    transform: rotate(360deg);
  }
}</style></svg>