<?xml version="1.0" encoding="utf-8"?>
<svg xmlns="http://www.w3.org/2000/svg" style="margin: auto; display: block; shape-rendering: auto;" width="282" height="250" preserveAspectRatio="xMidYMid">
<style type="text/css">
  text {
    text-anchor: middle; font-size: 48px; opacity: 0;
  }
</style>
<g transform="translate(141,125)">
  <g transform="translate(0,0)"><g class="path" style="transform-origin: -97.8901px -3.72792px; transform: matrix(1, 0, 0, 1, 0, 14.925); opacity: 0.005; animation: 1.6129s linear 0s 1 normal forwards running float-btt-in-9893b346-08d4-4db0-ba51-08d38d9609e0;"><path d="M19.20-33.17L19.20-33.17L19.20-33.17Q11.76-33.17 11.76-18.82L11.76-18.82L11.76-15.02L11.76-15.02Q11.76-8.21 13.73-4.34L13.73-4.34L13.73-4.34Q15.70-0.48 19.54-0.48L19.54-0.48L19.54-0.48Q24.82-0.48 29.23-10.75L29.23-10.75L30.10-10.75L29.76-0.05L29.23-0.05L29.23-0.05Q28.94-0.58 28.70-0.79L28.70-0.79L28.70-0.79Q28.46-1.01 28.01-1.01L28.01-1.01L28.01-1.01Q27.55-1.01 24.53-0.26L24.53-0.26L24.53-0.26Q21.50 0.48 18.38 0.48L18.38 0.48L18.38 0.48Q10.56 0.48 6.26-3.74L6.26-3.74L6.26-3.74Q1.97-7.97 1.97-16.44L1.97-16.44L1.97-16.44Q1.97-24.91 6.46-29.52L6.46-29.52L6.46-29.52Q10.94-34.13 18.53-34.13L18.53-34.13L18.53-34.13Q21.46-34.13 24.26-33.38L24.26-33.38L24.26-33.38Q27.07-32.64 27.55-32.64L27.55-32.64L27.55-32.64Q28.03-32.64 28.27-32.86L28.27-32.86L28.27-32.86Q28.51-33.07 28.80-33.60L28.80-33.60L29.33-33.60L29.71-23.18L28.85-23.18L28.85-23.18Q26.69-28.03 24.41-30.60L24.41-30.60L24.41-30.60Q22.13-33.17 19.20-33.17" fill="#d69293" stroke="none" stroke-width="none" transform="translate(-113.925048828125,13.09708477783204)" style="fill: rgb(214, 146, 147);"></path></g><g class="path" style="transform-origin: -68.7801px 1.43208px; transform: matrix(1, 0, 0, 1, 0, 14.925); opacity: 0.005; animation: 1.6129s linear 0.106452s 1 normal forwards running float-btt-in-9893b346-08d4-4db0-ba51-08d38d9609e0;"><path d="M49.63-21.50L49.63-21.50L49.63-21.50Q47.86-21.50 46.51-19.20L46.51-19.20L46.51-19.20Q45.17-16.90 45.17-13.73L45.17-13.73L45.17-0.86L48.58-0.86L48.58 0L33.60 0L33.60-0.86L36.24-0.86L36.24-21.98L33.60-21.98L33.60-22.85L45.17-22.85L45.17-18.24L45.17-18.24Q45.79-20.69 47.57-22.01L47.57-22.01L47.57-22.01Q49.34-23.33 51.60-23.33L51.60-23.33L51.60-23.33Q53.86-23.33 55.27-22.06L55.27-22.06L55.27-22.06Q56.69-20.78 56.69-18.46L56.69-18.46L56.69-18.46Q56.69-16.13 55.63-14.88L55.63-14.88L55.63-14.88Q54.58-13.63 52.39-13.63L52.39-13.63L52.39-13.63Q50.21-13.63 49.18-15.07L49.18-15.07L49.18-15.07Q48.14-16.51 48.91-19.06L48.91-19.06L50.64-19.06L50.64-19.06Q51.84-21.50 49.63-21.50" fill="#d69293" stroke="none" stroke-width="none" transform="translate(-113.925048828125,13.09708477783204)" style="fill: rgb(214, 146, 147);"></path></g><g class="path" style="transform-origin: -44.11px 1.67209px; transform: matrix(1, 0, 0, 1, 0, 14.925); opacity: 0.005; animation: 1.6129s linear 0.212903s 1 normal forwards running float-btt-in-9893b346-08d4-4db0-ba51-08d38d9609e0;"><path d="M68.16-11.28L68.16-11.28L69.55-11.28L69.55-14.98L69.55-14.98Q69.55-19.54 69.05-21.10L69.05-21.10L69.05-21.10Q68.54-22.66 67.10-22.66L67.10-22.66L67.10-22.66Q66.24-22.66 65.54-22.20L65.54-22.20L65.54-22.20Q64.85-21.74 64.85-20.95L64.85-20.95L64.85-20.95Q64.85-20.16 65.14-19.34L65.14-19.34L66.34-19.34L66.34-19.34Q66.72-18.34 66.72-16.92L66.72-16.92L66.72-16.92Q66.72-15.50 65.52-14.47L65.52-14.47L65.52-14.47Q64.32-13.44 62.50-13.44L62.50-13.44L62.50-13.44Q58.37-13.44 58.37-17.42L58.37-17.42L58.37-17.42Q58.37-23.33 68.40-23.33L68.40-23.33L68.40-23.33Q74.11-23.33 76.30-21.38L76.30-21.38L76.30-21.38Q78.48-19.44 78.48-14.26L78.48-14.26L78.48-4.51L78.48-4.51Q78.48-2.02 79.87-2.02L79.87-2.02L79.87-2.02Q81.50-2.02 81.79-6.96L81.79-6.96L82.51-6.91L82.51-6.91Q82.32-2.69 80.93-1.10L80.93-1.10L80.93-1.10Q79.54 0.48 76.37 0.48L76.37 0.48L76.37 0.48Q70.61 0.48 69.74-3.07L69.74-3.07L69.74-3.07Q69.12-1.25 67.87-0.38L67.87-0.38L67.87-0.38Q66.62 0.48 64.22 0.48L64.22 0.48L64.22 0.48Q57.12 0.48 57.12-5.33L57.12-5.33L57.12-5.33Q57.12-8.74 59.83-10.01L59.83-10.01L59.83-10.01Q62.54-11.28 68.16-11.28zM66.24-5.38L66.24-5.38Q66.24-2.88 66.50-2.16L66.50-2.16L66.50-2.16Q66.77-1.44 67.51-1.44L67.51-1.44L67.51-1.44Q68.26-1.44 68.90-2.66L68.90-2.66L68.90-2.66Q69.55-3.89 69.55-6.05L69.55-6.05L69.55-10.51L69.22-10.51L69.22-10.51Q66.24-10.51 66.24-6.14L66.24-6.14L66.24-5.38" fill="#d69293" stroke="none" stroke-width="none" transform="translate(-113.925048828125,13.09708477783204)" style="fill: rgb(214, 146, 147);"></path></g><g class="path" style="transform-origin: -21.5251px 1.67207px; transform: matrix(1, 0, 0, 1, 0, 14.925); opacity: 0.005; animation: 1.6129s linear 0.319355s 1 normal forwards running float-btt-in-9893b346-08d4-4db0-ba51-08d38d9609e0;"><path d="M81.60-21.98L79.63-21.98L79.63-22.85L93.98-22.85L93.98-21.98L90.96-21.98L96.72-6.05L101.90-21.98L98.69-21.98L98.69-22.85L105.17-22.85L105.17-21.98L103.06-21.98L95.95 0L90.48 0L81.60-21.98" fill="#d69293" stroke="none" stroke-width="none" transform="translate(-113.925048828125,13.09708477783204)" style="fill: rgb(214, 146, 147);"></path></g><g class="path" style="transform-origin: 2.1731px 1.67209px; transform: matrix(1, 0, 0, 1, 0, 14.925); opacity: 0.005; animation: 1.6129s linear 0.425806s 1 normal forwards running float-btt-in-9893b346-08d4-4db0-ba51-08d38d9609e0;"><path d="M117.07 0.48L117.07 0.48Q110.88 0.48 107.78-2.71L107.78-2.71L107.78-2.71Q104.69-5.90 104.69-11.59L104.69-11.59L104.69-11.59Q104.69-17.28 108.17-20.30L108.17-20.30L108.17-20.30Q111.65-23.33 117.02-23.33L117.02-23.33L117.02-23.33Q127.92-23.33 127.49-12.38L127.49-12.38L113.95-12.38L113.95-10.51L113.95-10.51Q113.95-5.81 115.15-3.41L115.15-3.41L115.15-3.41Q116.35-1.01 119.33-1.01L119.33-1.01L119.33-1.01Q124.90-1.01 126.62-6.96L126.62-6.96L127.49-6.82L127.49-6.82Q126.58-3.36 124.20-1.44L124.20-1.44L124.20-1.44Q121.82 0.48 117.07 0.48L117.07 0.48zM114-15.70L114-13.34L118.94-13.34L118.94-15.70L118.94-15.70Q118.94-19.58 118.49-21L118.49-21L118.49-21Q118.03-22.42 116.66-22.42L116.66-22.42L116.66-22.42Q115.30-22.42 114.65-20.90L114.65-20.90L114.65-20.90Q114-19.39 114-15.70L114-15.70" fill="#d69293" stroke="none" stroke-width="none" transform="translate(-113.925048828125,13.09708477783204)" style="fill: rgb(214, 146, 147);"></path></g><g class="path" style="transform-origin: 34.9749px -3.70293px; transform: matrix(1, 0, 0, 1, 0, 14.925); opacity: 0.005; animation: 1.6129s linear 0.532258s 1 normal forwards running float-btt-in-9893b346-08d4-4db0-ba51-08d38d9609e0;"><path d="M149.28-8.88L155.04-33.60L167.86-33.60L167.86-32.69L165.22-32.69L165.22-0.91L167.86-0.91L167.86 0L153.22 0L153.22-0.91L155.86-0.91L155.86-30.91L155.66-30.91L148.46 0L142.46 0L134.02-31.06L133.82-31.06L133.82-0.91L136.46-0.91L136.46 0L129.94 0L129.94-0.91L132.58-0.91L132.58-32.69L129.94-32.69L129.94-33.60L142.90-33.60L149.28-8.88" fill="#d69293" stroke="none" stroke-width="none" transform="translate(-113.925048828125,13.09708477783204)" style="fill: rgb(214, 146, 147);"></path></g><g class="path" style="transform-origin: 67.2631px 1.67209px; transform: matrix(1, 0, 0, 1, 0, 14.925); opacity: 0.005; animation: 1.6129s linear 0.63871s 1 normal forwards running float-btt-in-9893b346-08d4-4db0-ba51-08d38d9609e0;"><path d="M182.16 0.48L182.16 0.48Q175.97 0.48 172.87-2.71L172.87-2.71L172.87-2.71Q169.78-5.90 169.78-11.59L169.78-11.59L169.78-11.59Q169.78-17.28 173.26-20.30L173.26-20.30L173.26-20.30Q176.74-23.33 182.11-23.33L182.11-23.33L182.11-23.33Q193.01-23.33 192.58-12.38L192.58-12.38L179.04-12.38L179.04-10.51L179.04-10.51Q179.04-5.81 180.24-3.41L180.24-3.41L180.24-3.41Q181.44-1.01 184.42-1.01L184.42-1.01L184.42-1.01Q189.98-1.01 191.71-6.96L191.71-6.96L192.58-6.82L192.58-6.82Q191.66-3.36 189.29-1.44L189.29-1.44L189.29-1.44Q186.91 0.48 182.16 0.48L182.16 0.48zM179.09-15.70L179.09-13.34L184.03-13.34L184.03-15.70L184.03-15.70Q184.03-19.58 183.58-21L183.58-21L183.58-21Q183.12-22.42 181.75-22.42L181.75-22.42L181.75-22.42Q180.38-22.42 179.74-20.90L179.74-20.90L179.74-20.90Q179.09-19.39 179.09-15.70L179.09-15.70" fill="#d69293" stroke="none" stroke-width="none" transform="translate(-113.925048828125,13.09708477783204)" style="fill: rgb(214, 146, 147);"></path></g><g class="path" style="transform-origin: 86.2549px 9.40208px; transform: matrix(1, 0, 0, 1, 0, 14.925); opacity: 0.005; animation: 1.6129s linear 0.745161s 1 normal forwards running float-btt-in-9893b346-08d4-4db0-ba51-08d38d9609e0;"><path d="M200.14 0.48L200.14 0.48L200.14 0.48Q198.05 0.48 197.02-0.74L197.02-0.74L197.02-0.74Q195.98-1.97 195.98-3.72L195.98-3.72L195.98-3.72Q195.98-5.47 197.06-6.67L197.06-6.67L197.06-6.67Q198.14-7.87 200.11-7.87L200.11-7.87L200.11-7.87Q202.08-7.87 203.23-6.86L203.23-6.86L203.23-6.86Q204.38-5.86 204.38-3.84L204.38-3.84L204.38-3.84Q204.38-1.82 203.30-0.67L203.30-0.67L203.30-0.67Q202.22 0.48 200.14 0.48" fill="#d69293" stroke="none" stroke-width="none" transform="translate(-113.925048828125,13.09708477783204)" style="fill: rgb(214, 146, 147);"></path></g><g class="path" style="transform-origin: 98.9749px 9.40208px; transform: matrix(1, 0, 0, 1, 0, 14.925); opacity: 0.005; animation: 1.6129s linear 0.851613s 1 normal forwards running float-btt-in-9893b346-08d4-4db0-ba51-08d38d9609e0;"><path d="M212.86 0.48L212.86 0.48L212.86 0.48Q210.77 0.48 209.74-0.74L209.74-0.74L209.74-0.74Q208.70-1.97 208.70-3.72L208.70-3.72L208.70-3.72Q208.70-5.47 209.78-6.67L209.78-6.67L209.78-6.67Q210.86-7.87 212.83-7.87L212.83-7.87L212.83-7.87Q214.80-7.87 215.95-6.86L215.95-6.86L215.95-6.86Q217.10-5.86 217.10-3.84L217.10-3.84L217.10-3.84Q217.10-1.82 216.02-0.67L216.02-0.67L216.02-0.67Q214.94 0.48 212.86 0.48" fill="#d69293" stroke="none" stroke-width="none" transform="translate(-113.925048828125,13.09708477783204)" style="fill: rgb(214, 146, 147);"></path></g><g class="path" style="transform-origin: 111.695px 9.40208px; transform: matrix(1, 0, 0, 1, 0, 14.925); opacity: 0.005; animation: 1.6129s linear 0.958065s 1 normal forwards running float-btt-in-9893b346-08d4-4db0-ba51-08d38d9609e0;"><path d="M225.58 0.48L225.58 0.48L225.58 0.48Q223.49 0.48 222.46-0.74L222.46-0.74L222.46-0.74Q221.42-1.97 221.42-3.72L221.42-3.72L221.42-3.72Q221.42-5.47 222.50-6.67L222.50-6.67L222.50-6.67Q223.58-7.87 225.55-7.87L225.55-7.87L225.55-7.87Q227.52-7.87 228.67-6.86L228.67-6.86L228.67-6.86Q229.82-5.86 229.82-3.84L229.82-3.84L229.82-3.84Q229.82-1.82 228.74-0.67L228.74-0.67L228.74-0.67Q227.66 0.48 225.58 0.48" fill="#d69293" stroke="none" stroke-width="none" transform="translate(-113.925048828125,13.09708477783204)" style="fill: rgb(214, 146, 147);"></path></g></g>
</g>
<style id="float-btt-in-9893b346-08d4-4db0-ba51-08d38d9609e0" data-anikit="">@keyframes float-btt-in-9893b346-08d4-4db0-ba51-08d38d9609e0
{
  0% {
    animation-timing-function: cubic-bezier(NaN,NaN,NaN,NaN);
    transform: matrix(1,0,0,1,0,14.925);
    opacity: 0.005;
  }
  100% {
    transform: matrix(1,0,0,1,0,0);
    opacity: 1;
  }
}</style><style id="float-btt-in-9893b346-08d4-4db0-ba51-08d38d9609e0" data-anikit="">@keyframes float-btt-in-9893b346-08d4-4db0-ba51-08d38d9609e0
{
  0% {
    animation-timing-function: cubic-bezier(NaN,NaN,NaN,NaN);
    transform: matrix(1,0,0,1,0,14.925);
    opacity: 0.005;
  }
  100% {
    transform: matrix(1,0,0,1,0,0);
    opacity: 1;
  }
}</style></svg>